<?xml version="1.0" standalone="no"?><!DOCTYPE svg PUBLIC "-//W3C//DTD SVG 1.1//EN" "http://www.w3.org/Graphics/SVG/1.1/DTD/svg11.dtd"><svg t="1697023322673" class="icon" viewBox="0 0 1024 1024" version="1.1" xmlns="http://www.w3.org/2000/svg" p-id="7788" xmlns:xlink="http://www.w3.org/1999/xlink" width="200" height="200"><path d="M383.1808 121.97888H421.888v43.66336h-6.30784c-1.2288 0-2.4576 0.24576-3.56352 0.57344h-28.83584v-44.2368z m97.4848 43.66336H512V121.97888h-31.3344v43.66336z m56.19712 0h33.46432V121.97888h-33.46432v43.66336z m130.78528 0.57344h-28.79488a12.288 12.288 0 0 0-3.60448-0.57344h-6.144V121.97888h38.5024v44.2368z m-84.86912-0.57344h33.91488V121.97888h-33.91488v43.66336z m-148.43904 0h33.91488V121.97888h-33.91488v43.66336zM536.86272 927.744H761.856l0.57344 0.32768c1.18784 0.73728 2.4576 1.14688 3.76832 1.4336l2.4576 12.77952h-231.8336v-14.5408z m-252.27264 1.76128a12.20608 12.20608 0 0 0 3.76832-1.39264l0.6144-0.4096H512v14.58176H282.2144l2.4576-12.77952z m49.5616-259.2768l155.81184 93.7984H316.25216l17.89952-93.7984z m47.9232-250.75712l115.01568 78.19264H367.16544l14.90944-78.19264z m38.46144-201.1136L482.63168 262.9632l-70.32832-1.6384 8.192-42.96704z m91.46368 35.10272L425.65632 191.44704l0.2048-0.94208H512v62.91456z m24.86272 2.37568V190.50496h88.10496l0.4096 2.21184-88.51456 63.0784z m102.64576 10.69056l-72.4992-1.6384 63.52896-45.2608 8.97024 46.8992z m-92.16 12.32896l2.74432-1.92512 91.79136 2.048 14.99136 78.52032-109.48608-78.6432z m136.35584 218.80832H559.47264l110.01856-74.21952 14.21312 74.21952z m-124.1088 12.41088h126.44352l18.92352 98.79552-145.408-98.79552z m3.4816 253.952l153.96864-91.91424 17.57184 91.91424H563.07712z m-4.25984 12.45184h178.176l23.1424 121.20064-201.3184-121.2416zM512 915.29216H309.78048L512 794.46016v120.75008z m24.86272-123.04384l204.3904 123.00288h-204.3904v-123.00288zM512 652.0832v96.13312l-159.744-96.13312h159.744z m0-12.45184H348.73344L512 529.6128v110.05952z m0-242.11456v80.11776L394.07616 397.55776h117.9648z m0-12.45184H398.1312l113.8688-81.1008v81.1008z m151.42912 12.45184l-126.5664 85.31968V397.55776h126.5664z m-126.5664-12.45184V301.8752l115.95776 83.23072H536.86272z m165.10976 267.01824l-165.10976 98.59072V652.0832h165.10976z m-165.10976-12.45184V524.6976l169.24672 115.01568H536.86272zM409.96864 273.69472l90.5216 2.048 4.17792 2.99008-110.75584 78.88896 16.05632-83.968z m-45.17888 236.3392h131.80928l-151.30624 101.9904 19.49696-101.9904z m-50.91328 266.40384h179.89632l-203.07968 121.28256 23.18336-121.28256z m480.29696 166.912L691.52768 406.24128a12.41088 12.41088 0 0 0-2.6624-13.9264l-36.20864-189.39904a12.36992 12.36992 0 0 0-3.35872-17.6128l-1.26976-6.63552h25.8048a6.22592 6.22592 0 0 0 6.22592-6.22592V115.75296a6.22592 6.22592 0 0 0-6.18496-6.22592H536.86272V53.37088a12.41088 12.41088 0 0 0-24.86272 0v56.15616H376.99584a6.22592 6.22592 0 0 0-6.22592 6.22592V172.4416c0 3.44064 2.78528 6.22592 6.22592 6.22592h25.8048l-1.67936 8.92928-0.8192 0.90112a12.41088 12.41088 0 0 0-1.55648 11.55072L256.65536 943.3088H204.8V983.04h641.2288v-39.7312H794.2144z" fill="#23303C" p-id="7789"></path></svg>